<?xml version="1.0" encoding="utf-8"?>
<!-- Generator: Adobe Illustrator 24.1.2, SVG Export Plug-In . SVG Version: 6.00 Build 0)  -->
<svg version="1.1" id="Layer_1" xmlns="http://www.w3.org/2000/svg" xmlns:xlink="http://www.w3.org/1999/xlink" x="0px" y="0px"
	 viewBox="0 0 436 512" style="enable-background:new 0 0 436 512;" xml:space="preserve">
<style type="text/css">
	.st0{fill:#1E0478;}
</style>
<path class="st0" d="M272.5,0h-218C24.4,0,0,22.9,0,51.2v409.6C0,489.1,24.4,512,54.5,512h327c30.1,0,54.5-22.9,54.5-51.2V153.6
	L272.5,0z M197.7,363.2c0,34.4-17.5,46.4-45.8,46.4c-6.7,0-15.5-1.1-21.2-2.9l3.2-22c4,1.3,9.2,2.2,14.9,2.2
	c12.2,0,19.9-5.2,19.9-24v-76h29V363.2z M253.4,409.4c-14.7,0-29.2-3.6-36.4-7.3l5.9-22.6c7.8,3.8,19.9,7.5,32.3,7.5
	c13.4,0,20.4-5.2,20.4-13.1c0-7.6-6.1-11.9-21.6-17c-21.4-7-35.3-18.1-35.3-35.7c0-20.6,18.3-36.4,48.7-36.4
	c14.5,0,25.2,2.9,32.8,6.1l-6.5,22c-5.2-2.3-14.3-5.7-26.9-5.7c-12.6,0-18.7,5.4-18.7,11.6c0,7.7,7.3,11.1,23.8,17
	c22.7,7.9,33.4,19,33.4,36C305.3,392.2,288.7,409.4,253.4,409.4z M272.5,179.2h-27.3v-128l136.3,128H272.5z"/>
</svg>
